<?xml version="1.0" encoding="UTF-8" standalone="no"?><!-- Generator: Gravit.io --><svg xmlns="http://www.w3.org/2000/svg" xmlns:xlink="http://www.w3.org/1999/xlink" style="isolation:isolate" viewBox="0 0 560 315" width="560pt" height="315pt"><defs><clipPath id="_clipPath_Y16soCC00wldfx5382lQNParITCgz12w"><rect width="560" height="315"/></clipPath></defs><g clip-path="url(#_clipPath_Y16soCC00wldfx5382lQNParITCgz12w)"><mask id="_mask_hoxCDfIMYRBYCbUaG0tiWfQbmVhInT7L"><path d=" M 160.5 163 C 160.5 94.011 216.511 38 285.5 38 C 354.489 38 410.5 94.011 410.5 163 C 410.5 231.989 354.489 288 285.5 288 C 216.511 288 160.5 231.989 160.5 163 Z " fill="white" stroke="none"/></mask><path d=" M 160.5 163 C 160.5 94.011 216.511 38 285.5 38 C 354.489 38 410.5 94.011 410.5 163 C 410.5 231.989 354.489 288 285.5 288 C 216.511 288 160.5 231.989 160.5 163 Z " fill="rgb(235,235,235)"/><path d=" M 160.5 163 C 160.5 94.011 216.511 38 285.5 38 C 354.489 38 410.5 94.011 410.5 163 C 410.5 231.989 354.489 288 285.5 288 C 216.511 288 160.5 231.989 160.5 163 Z " fill="rgb(235,235,235)" mask="url(#_mask_hoxCDfIMYRBYCbUaG0tiWfQbmVhInT7L)" vector-effect="non-scaling-stroke" stroke-width="12" stroke="rgb(0,0,0)" stroke-linejoin="miter" stroke-linecap="square" stroke-miterlimit="3"/><circle vector-effect="non-scaling-stroke" cx="285.5" cy="163" r="100" fill="rgb(113,195,195)"/><defs><filter id="VHk5jzObw0bMZMbtXLAEuXH9a2jsDCoB" x="-200%" y="-200%" width="400%" height="400%" filterUnits="objectBoundingBox" color-interpolation-filters="sRGB"><feGaussianBlur xmlns="http://www.w3.org/2000/svg" in="SourceGraphic" stdDeviation="0"/><feOffset xmlns="http://www.w3.org/2000/svg" dx="-5" dy="5" result="pf_100_offsetBlur"/><feFlood xmlns="http://www.w3.org/2000/svg" flood-color="#000000" flood-opacity="0.3"/><feComposite xmlns="http://www.w3.org/2000/svg" in2="pf_100_offsetBlur" operator="in" result="pf_100_dropShadow"/><feBlend xmlns="http://www.w3.org/2000/svg" in="SourceGraphic" in2="pf_100_dropShadow" mode="normal"/></filter></defs><g filter="url(#VHk5jzObw0bMZMbtXLAEuXH9a2jsDCoB)"><path d=" M 209.879 163 C 205.038 163 201.114 166.924 201.114 171.765 L 201.114 219.971 C 201.114 224.811 205.038 228.735 209.879 228.735 L 210.155 228.735 C 211.18 233.731 215.545 237.5 220.835 237.5 C 226.124 237.5 230.489 233.731 231.519 228.735 L 258.356 228.735 C 259.386 233.731 263.751 237.5 269.041 237.5 C 274.33 237.5 278.695 233.731 279.725 228.735 L 279.997 228.735 C 280.597 228.735 281.21 228.718 281.776 228.599 C 285.852 227.737 288.766 224.137 288.761 219.971 L 288.761 203.808 C 288.761 202.936 288.555 202.064 288.078 201.346 L 273.971 180.117 C 278.056 178.762 280.557 174.645 279.877 170.395 C 279.197 166.144 275.536 163.013 271.232 163 L 209.879 163 Z  M 218.644 180.529 L 231.791 180.529 C 234.201 180.529 236.173 182.501 236.173 184.912 L 236.173 198.059 C 236.173 200.469 234.201 202.441 231.791 202.441 L 218.644 202.441 C 216.233 202.441 214.261 200.469 214.261 198.059 L 214.261 184.912 C 214.261 182.501 216.233 180.529 218.644 180.529 Z  M 258.085 184.912 L 269.177 184.912 L 277.941 198.059 L 258.085 198.059 L 258.085 184.912 Z  M 220.835 222.162 C 223.245 222.162 225.217 224.134 225.217 226.544 C 225.217 228.954 223.245 230.926 220.835 230.926 C 218.424 230.926 216.452 228.954 216.452 226.544 C 216.452 224.134 218.424 222.162 220.835 222.162 Z  M 269.041 222.162 C 271.451 222.162 273.423 224.134 273.423 226.544 C 273.423 228.954 271.451 230.926 269.041 230.926 C 266.63 230.926 264.658 228.954 264.658 226.544 C 264.658 224.134 266.63 222.162 269.041 222.162 Z " fill="rgb(0,0,0)"/></g><g><path d=" M 277.757 136.591 C 275.81 134.424 274.104 132.052 272.667 129.518 C 269.789 124.467 267.947 118.894 267.247 113.123 L 267.247 111.272 C 267.322 110.097 267.787 108.98 268.569 108.099 C 268.978 107.701 269.476 107.406 270.023 107.24 C 270.388 107.128 270.765 107.061 271.147 107.042 L 271.874 107.042 C 272.866 107.042 273.989 106.909 274.915 107.108 C 275.906 107.306 289.524 107.504 298.052 115.702 C 303.803 112.396 326.081 113.454 330.775 117.685 C 330.775 116.363 343.599 108.165 359.399 109.223 C 360.619 109.258 361.807 109.624 362.836 110.281 C 363.286 110.599 363.668 111.004 363.96 111.471 L 364.489 112.727 C 364.783 114.418 364.715 116.153 364.291 117.817 C 363.893 119.577 363.294 121.285 362.506 122.907 C 361.274 125.689 359.815 128.364 358.143 130.906 L 354.904 136.789 L 355.565 136.922 L 355.565 141.417 L 353.119 142.078 C 354.049 144.909 354.364 147.907 354.044 150.87 C 353.565 154.628 351.843 158.119 349.152 160.786 L 347.83 162.108 C 345.3 164.297 342.604 166.286 339.765 168.058 C 337.484 169.406 335.069 170.514 332.56 171.363 L 332.295 171.495 L 332.097 171.561 L 331.965 171.826 C 331.271 173.198 330.304 174.413 329.122 175.396 C 328.386 176.044 327.589 176.619 326.742 177.114 C 323.901 178.677 320.728 179.538 317.487 179.626 C 315.838 179.763 314.179 179.763 312.529 179.626 C 309.765 179.389 307.036 178.835 304.398 177.974 C 303.369 177.571 302.374 177.084 301.424 176.519 C 300.281 175.766 299.294 174.801 298.515 173.677 C 298.421 173.548 298.333 173.416 298.25 173.28 L 297.92 173.214 C 292.66 172.401 287.81 169.894 284.104 166.075 C 281.587 163.383 279.771 160.114 278.815 156.555 C 278.156 154.266 277.714 151.92 277.493 149.548 C 277.179 147.115 277.112 144.656 277.295 142.21 L 277.295 141.681 L 276.435 141.417 L 276.369 136.922 L 277.691 136.591 L 277.757 136.591 Z " fill-rule="evenodd" fill="rgb(0,0,0)" fill-opacity="0.2"/><path d=" M 298.978 117.42 C 298.978 117.42 314.248 110.81 333.882 119.47 C 333.882 119.47 342.277 112.661 355.961 110.611 C 369.645 108.562 356.16 129.055 356.16 129.055 L 350.871 138.508 C 350.871 138.508 356.027 148.953 347.367 156.886 C 343.145 161.085 338.009 164.252 332.361 166.141 C 332.361 166.141 329.783 173.809 316.562 173.346 C 304.002 172.883 302.613 167.463 302.613 167.463 C 302.613 167.463 288.202 166.537 284.633 151.399 C 282.12 140.491 284.633 135.005 284.633 135.005 C 284.633 135.005 277.163 127.733 274.783 115.834 C 272.667 105.125 279.278 108.76 284.236 109.554 C 288.863 110.215 298.118 115.503 299.044 117.354 L 298.978 117.42 Z " fill-rule="evenodd" fill="rgb(230,182,120)"/><path d=" M 283.112 134.674 C 281.342 132.687 279.791 130.515 278.485 128.196 C 275.853 123.548 274.168 118.425 273.527 113.123 L 273.527 111.405 C 273.587 110.475 273.908 109.582 274.452 108.826 C 274.856 108.301 275.409 107.91 276.039 107.703 C 276.511 107.564 277.001 107.497 277.493 107.504 L 277.757 107.504 C 278.617 107.504 279.476 107.637 280.336 107.835 L 282.782 108.43 L 283.443 108.562 L 284.104 108.694 L 284.633 108.76 L 284.897 108.76 C 286.315 109.051 287.692 109.518 288.996 110.149 C 292.312 111.556 295.46 113.33 298.383 115.437 L 299.308 116.363 L 299.771 116.164 C 310.917 112.916 322.85 113.688 333.485 118.346 L 333.75 118.412 L 334.08 118.214 L 334.543 117.883 C 341.028 113.631 348.358 110.834 356.027 109.686 L 356.821 109.62 C 357.261 109.589 357.703 109.589 358.143 109.62 C 359.244 109.635 360.32 109.955 361.25 110.545 C 361.64 110.836 361.976 111.194 362.241 111.603 C 362.467 111.952 362.645 112.33 362.77 112.727 C 362.93 113.353 362.996 113.999 362.968 114.644 C 362.71 117.252 362.017 119.8 360.919 122.18 C 359.788 124.703 358.462 127.135 356.953 129.452 L 353.978 134.872 L 354.639 135.005 L 354.507 139.103 L 352.391 139.764 C 353.218 142.344 353.489 145.071 353.185 147.763 C 352.683 151.8 350.618 155.479 347.434 158.01 L 346.111 159.199 C 344.218 160.801 342.207 162.26 340.096 163.562 C 338.005 164.806 335.79 165.826 333.485 166.603 L 333.221 166.736 L 333.022 166.736 C 332.387 168.088 331.462 169.284 330.312 170.239 C 329.646 170.866 328.915 171.42 328.13 171.892 C 325.531 173.318 322.632 174.111 319.669 174.206 C 314.846 174.439 310.033 173.58 305.588 171.694 C 304.711 171.22 303.909 170.618 303.208 169.909 C 302.836 169.548 302.504 169.15 302.217 168.719 L 301.952 168.322 L 301.688 168.322 C 296.859 167.533 292.41 165.216 288.996 161.712 C 286.697 159.241 285.04 156.245 284.17 152.985 C 283.53 150.894 283.087 148.747 282.848 146.573 C 282.575 144.336 282.53 142.077 282.715 139.83 L 282.715 139.368 L 281.922 139.103 L 281.856 135.005 L 283.178 134.674 L 283.112 134.674 Z  M 284.5 139.83 C 284.161 143.218 284.407 146.64 285.227 149.945 L 285.889 152.523 C 286.739 155.39 288.18 158.047 290.119 160.323 C 292.33 162.787 295.16 164.614 298.317 165.612 C 299.689 166.085 301.107 166.418 302.547 166.603 L 303.274 166.603 C 303.274 166.868 303.407 167.066 303.473 167.264 C 303.569 167.545 303.702 167.812 303.869 168.058 C 304.245 168.559 304.69 169.004 305.192 169.38 C 305.853 169.909 306.712 170.305 307.505 170.702 C 311.87 172.238 316.527 172.758 321.123 172.222 C 323.503 171.958 325.751 171.231 327.734 169.975 C 329.135 169.089 330.312 167.889 331.171 166.471 C 331.298 166.259 331.408 166.038 331.502 165.81 L 331.634 165.413 L 333.088 164.819 C 335.163 164.001 337.193 163.074 339.17 162.042 C 341.748 160.595 344.126 158.817 346.244 156.754 L 347.301 155.696 C 348.526 154.49 349.533 153.081 350.276 151.531 C 351.449 148.968 351.817 146.11 351.334 143.334 L 351.334 143.136 C 349.417 152.589 344.921 152.126 344.921 152.126 C 344.921 152.126 335.997 153.118 329.981 152.457 C 323.966 151.796 320.528 142.276 320.528 142.276 L 315.901 142.276 C 315.901 142.276 312.529 151.729 306.514 152.457 C 300.498 153.118 291.574 152.126 291.574 152.126 C 291.574 152.126 286.021 152.721 284.633 139.896 L 284.5 139.896 L 284.5 139.83 Z  M 321.123 170.636 C 321.123 170.9 320.594 171.429 320.198 171.495 C 319.14 171.627 315.702 171.627 314.645 171.495 C 314.248 171.495 313.719 170.9 313.719 170.636 C 313.719 170.305 314.248 169.776 314.645 169.71 C 315.702 169.578 319.14 169.578 320.198 169.71 C 320.594 169.776 321.123 170.371 321.123 170.636 Z  M 317.157 156.423 C 320.66 156.423 323.503 159.332 323.503 162.835 C 323.503 166.405 320.66 169.314 317.157 169.314 C 315.445 169.314 313.804 168.629 312.599 167.412 C 311.395 166.195 310.727 164.547 310.745 162.835 C 310.745 159.332 313.587 156.423 317.157 156.423 Z  M 290.252 135.269 C 290.252 135.269 300.961 133.021 308.894 135.93 C 314.909 138.244 312.001 142.739 310.612 145.185 C 309.224 147.631 305.919 149.878 304.2 150.077 C 302.481 150.275 293.623 149.812 293.623 149.812 C 293.623 149.812 288.533 148.49 287.541 141.219 C 286.946 136.856 290.252 135.269 290.252 135.269 Z  M 346.177 135.269 C 346.177 135.269 335.534 133.021 327.536 135.93 C 321.586 138.244 324.429 142.739 325.883 145.185 C 327.205 147.631 330.576 149.878 332.295 150.077 C 333.948 150.275 342.806 149.812 342.806 149.812 C 342.806 149.812 347.962 148.49 348.888 141.219 C 349.549 136.856 346.244 135.269 346.244 135.269 L 346.177 135.269 Z  M 333.485 137.913 C 335.468 138.707 336.394 140.822 335.667 142.673 C 335.006 144.458 332.758 145.317 330.841 144.524 C 329.913 144.21 329.151 143.534 328.728 142.651 C 328.305 141.767 328.256 140.75 328.593 139.83 C 329.386 137.979 331.502 137.186 333.485 137.913 Z  M 305.654 137.913 C 307.638 138.707 308.563 140.822 307.836 142.673 C 307.175 144.458 304.927 145.317 303.01 144.524 C 302.082 144.21 301.321 143.534 300.897 142.651 C 300.474 141.767 300.426 140.75 300.762 139.83 C 301.49 137.979 303.671 137.186 305.654 137.913 Z  M 352.193 134.41 L 355.432 128.592 L 355.763 128.063 L 356.093 127.468 C 357.591 124.961 358.916 122.355 360.06 119.668 C 360.517 118.308 360.871 116.916 361.118 115.503 L 361.184 114.974 L 361.184 114.181 C 361.162 113.541 360.956 112.921 360.589 112.396 C 360.3 112.027 359.909 111.751 359.465 111.603 C 359.082 111.46 358.682 111.371 358.275 111.338 C 357.548 111.338 356.821 111.338 356.093 111.471 C 348.712 112.618 341.659 115.322 335.402 119.403 L 334.411 120.131 L 334.014 120.527 L 333.022 120.065 L 332.361 119.8 C 329.658 118.702 326.873 117.818 324.032 117.156 C 316.394 115.42 308.445 115.602 300.895 117.685 L 299.44 118.214 L 298.581 118.544 L 298.184 117.817 C 294.014 114.606 289.316 112.145 284.302 110.545 L 283.773 110.413 L 283.244 110.347 L 280.6 109.686 C 280.402 109.686 280.203 109.686 279.939 109.554 C 279.027 109.36 278.095 109.272 277.163 109.289 C 276.808 109.309 276.466 109.423 276.171 109.62 L 276.039 109.752 C 275.707 110.076 275.477 110.489 275.378 110.942 L 275.378 111.537 C 275.314 112.085 275.292 112.638 275.312 113.189 L 275.378 114.049 C 275.477 114.895 275.631 115.735 275.84 116.561 C 277.324 123.154 280.516 129.241 285.095 134.211 L 287.74 133.616 C 287.74 133.616 291.574 132.559 296.796 132.228 C 303.55 131.47 310.365 132.982 316.165 136.525 C 316.959 136.789 317.62 136.922 318.215 136.922 C 318.937 136.906 319.651 136.772 320.33 136.525 C 320.991 136.194 321.388 135.798 321.388 135.798 C 332.163 129.055 348.69 133.616 348.69 133.616 L 352.193 134.41 Z " fill-rule="evenodd" fill="rgb(67,50,49)"/><path d=" M 346.706 130.377 L 341.55 126.146 C 341.352 123.766 342.409 121.387 345.252 119.073 C 345.252 119.073 353.581 115.371 357.085 115.768 C 360.589 116.164 349.152 125.221 346.706 130.311 L 346.706 130.377 Z  M 288.929 129.914 L 294.548 126.345 C 295.011 124.031 294.284 121.519 291.706 118.875 C 291.706 118.875 283.905 114.247 280.336 114.247 C 276.766 114.247 287.078 124.428 288.929 129.914 Z " fill-rule="evenodd" fill="rgb(243,221,192)"/><path d=" M 331.502 139.301 C 331.899 139.5 332.031 139.963 331.899 140.359 C 331.7 140.756 331.237 141.02 330.907 140.888 C 330.51 140.69 330.378 140.227 330.51 139.83 C 330.709 139.368 331.171 139.169 331.502 139.301 Z  M 303.671 139.301 C 304.068 139.5 304.2 139.963 304.068 140.359 C 303.869 140.756 303.407 141.02 303.076 140.888 C 302.68 140.69 302.481 140.227 302.68 139.83 C 302.812 139.368 303.341 139.169 303.671 139.301 Z " fill-rule="evenodd" fill="rgb(255,255,255)"/></g><path d=" M 288.128 52.257 L 288.128 52.257 L 288.128 52.257 Q 288.238 54.491 286.834 55.753 L 286.834 55.753 L 286.834 55.753 Q 285.43 57.016 282.728 57.149 L 282.728 57.149 L 281.246 57.223 L 281.509 62.558 L 279.178 62.673 L 278.473 48.413 L 282.579 48.21 L 282.579 48.21 Q 285.252 48.078 286.637 49.105 L 286.637 49.105 L 286.637 49.105 Q 288.023 50.131 288.128 52.257 Z  M 280.9 50.249 L 281.149 55.262 L 282.387 55.201 L 282.387 55.201 Q 284.182 55.112 284.99 54.446 L 284.99 54.446 L 284.99 54.446 Q 285.798 53.781 285.732 52.454 L 285.732 52.454 L 285.732 52.454 Q 285.671 51.225 284.89 50.658 L 284.89 50.658 L 284.89 50.658 Q 284.109 50.09 282.52 50.169 L 282.52 50.169 L 280.9 50.249 L 280.9 50.249 Z  M 307.675 64.704 L 305.223 64.335 L 304.404 60.202 L 299.006 59.388 L 297.034 63.1 L 294.6 62.734 L 302.019 49.354 L 304.53 49.732 L 307.675 64.704 L 307.675 64.704 Z  M 299.981 57.501 L 304.095 58.121 L 303.351 54.078 L 303.351 54.078 Q 303.265 53.67 303.134 52.801 L 303.134 52.801 L 303.134 52.801 Q 303.003 51.932 302.965 51.531 L 302.965 51.531 L 302.965 51.531 Q 302.525 52.679 301.81 54.014 L 301.81 54.014 L 299.981 57.501 L 299.981 57.501 Z  M 323.177 56.716 L 318.97 68.248 L 316.777 67.448 L 320.984 55.916 L 317.039 54.477 L 317.725 52.596 L 327.808 56.274 L 327.122 58.155 L 323.177 56.716 L 323.177 56.716 Z  M 331.562 73.671 L 329.459 72.657 L 335.657 59.795 L 337.76 60.809 L 331.562 73.671 L 331.562 73.671 Z  M 352.57 75.068 L 352.57 75.068 L 352.57 75.068 Q 351.32 76.922 349.44 77.091 L 349.44 77.091 L 349.44 77.091 Q 347.559 77.26 345.316 75.748 L 345.316 75.748 L 344.085 74.918 L 341.099 79.347 L 339.164 78.042 L 347.145 66.204 L 350.554 68.502 L 350.554 68.502 Q 352.773 69.998 353.267 71.65 L 353.267 71.65 L 353.267 71.65 Q 353.76 73.302 352.57 75.068 Z  M 347.989 69.128 L 345.183 73.29 L 346.211 73.984 L 346.211 73.984 Q 347.701 74.988 348.747 74.939 L 348.747 74.939 L 348.747 74.939 Q 349.792 74.891 350.535 73.789 L 350.535 73.789 L 350.535 73.789 Q 351.223 72.769 350.938 71.847 L 350.938 71.847 L 350.938 71.847 Q 350.653 70.924 349.333 70.034 L 349.333 70.034 L 347.989 69.128 L 347.989 69.128 Z  M 360.2 92.509 L 358.867 93.976 L 352.889 88.546 L 362.487 77.977 L 368.466 83.407 L 367.14 84.867 L 362.889 81.007 L 360.276 83.884 L 364.259 87.501 L 362.946 88.947 L 358.963 85.33 L 355.949 88.648 L 360.2 92.509 L 360.2 92.509 Z  M 375.238 94.789 L 371.497 97.582 L 372.467 98.881 L 372.467 98.881 Q 373.443 100.188 374.366 100.412 L 374.366 100.412 L 374.366 100.412 Q 375.289 100.637 376.244 99.924 L 376.244 99.924 L 376.244 99.924 Q 377.214 99.2 377.164 98.251 L 377.164 98.251 L 377.164 98.251 Q 377.113 97.301 376.161 96.026 L 376.161 96.026 L 375.238 94.789 L 375.238 94.789 Z  M 371.326 100.585 L 369.948 98.738 L 365.378 102.15 L 363.981 100.279 L 375.423 91.739 L 377.835 94.971 L 377.835 94.971 Q 379.488 97.186 379.453 98.869 L 379.453 98.869 L 379.453 98.869 Q 379.418 100.553 377.744 101.803 L 377.744 101.803 L 377.744 101.803 Q 375.607 103.398 373.04 101.853 L 373.04 101.853 L 370.39 108.864 L 368.801 106.736 L 371.326 100.585 L 371.326 100.585 Z  M 385.958 111.817 L 381.753 113.843 L 382.457 115.304 L 382.457 115.304 Q 383.164 116.773 384.028 117.17 L 384.028 117.17 L 384.028 117.17 Q 384.891 117.567 385.965 117.05 L 385.965 117.05 L 385.965 117.05 Q 387.055 116.524 387.187 115.583 L 387.187 115.583 L 387.187 115.583 Q 387.319 114.641 386.628 113.207 L 386.628 113.207 L 385.958 111.817 L 385.958 111.817 Z  M 381.011 116.759 L 380.011 114.683 L 374.873 117.158 L 373.86 115.056 L 386.722 108.858 L 388.473 112.492 L 388.473 112.492 Q 389.672 114.981 389.316 116.627 L 389.316 116.627 L 389.316 116.627 Q 388.96 118.273 387.078 119.18 L 387.078 119.18 L 387.078 119.18 Q 384.676 120.337 382.452 118.331 L 382.452 118.331 L 378.51 124.707 L 377.357 122.314 L 381.011 116.759 L 381.011 116.759 Z  M 391.115 141.85 L 391.115 141.85 L 391.115 141.85 Q 387.737 142.712 385.432 141.5 L 385.432 141.5 L 385.432 141.5 Q 383.128 140.289 382.339 137.194 L 382.339 137.194 L 382.339 137.194 Q 381.541 134.062 382.972 131.908 L 382.972 131.908 L 382.972 131.908 Q 384.403 129.755 387.829 128.881 L 387.829 128.881 L 387.829 128.881 Q 391.255 128.008 393.521 129.229 L 393.521 129.229 L 393.521 129.229 Q 395.787 130.45 396.586 133.583 L 396.586 133.583 L 396.586 133.583 Q 397.372 136.668 395.938 138.827 L 395.938 138.827 L 395.938 138.827 Q 394.503 140.987 391.115 141.85 Z  M 388.423 131.29 L 388.423 131.29 L 388.423 131.29 Q 385.868 131.941 384.811 133.309 L 384.811 133.309 L 384.811 133.309 Q 383.754 134.677 384.27 136.702 L 384.27 136.702 L 384.27 136.702 Q 384.784 138.718 386.351 139.412 L 386.351 139.412 L 386.351 139.412 Q 387.919 140.105 390.502 139.447 L 390.502 139.447 L 390.502 139.447 Q 393.048 138.798 394.104 137.445 L 394.104 137.445 L 394.104 137.445 Q 395.16 136.093 394.646 134.077 L 394.646 134.077 L 394.646 134.077 Q 394.127 132.043 392.548 131.342 L 392.548 131.342 L 392.548 131.342 Q 390.968 130.641 388.423 131.29 Z  M 389.936 159.427 L 389.936 159.427 L 389.936 159.427 Q 388.042 159.617 386.826 158.354 L 386.826 158.354 L 386.826 158.354 Q 385.611 157.092 385.37 154.682 L 385.37 154.682 L 385.37 154.682 Q 385.129 152.272 385.724 150.662 L 385.724 150.662 L 387.92 150.443 L 387.92 150.443 Q 387.561 151.46 387.407 152.579 L 387.407 152.579 L 387.407 152.579 Q 387.254 153.699 387.348 154.641 L 387.348 154.641 L 387.348 154.641 Q 387.486 156.021 388.076 156.625 L 388.076 156.625 L 388.076 156.625 Q 388.667 157.228 389.551 157.14 L 389.551 157.14 L 389.551 157.14 Q 390.348 157.06 390.841 156.403 L 390.841 156.403 L 390.841 156.403 Q 391.335 155.745 391.905 153.784 L 391.905 153.784 L 391.905 153.784 Q 392.498 151.762 393.429 150.864 L 393.429 150.864 L 393.429 150.864 Q 394.36 149.966 395.779 149.825 L 395.779 149.825 L 395.779 149.825 Q 397.557 149.647 398.703 150.808 L 398.703 150.808 L 398.703 150.808 Q 399.85 151.97 400.062 154.098 L 400.062 154.098 L 400.062 154.098 Q 400.266 156.138 399.574 158.249 L 399.574 158.249 L 397.605 157.7 L 397.605 157.7 Q 398.213 155.725 398.064 154.238 L 398.064 154.238 L 398.064 154.238 Q 397.952 153.111 397.403 152.577 L 397.403 152.577 L 397.403 152.577 Q 396.854 152.043 396.047 152.124 L 396.047 152.124 L 396.047 152.124 Q 395.494 152.179 395.123 152.452 L 395.123 152.452 L 395.123 152.452 Q 394.753 152.724 394.457 153.294 L 394.457 153.294 L 394.457 153.294 Q 394.16 153.863 393.726 155.31 L 393.726 155.31 L 393.726 155.31 Q 393.231 156.939 392.74 157.724 L 392.74 157.724 L 392.74 157.724 Q 392.249 158.509 391.574 158.92 L 391.574 158.92 L 391.574 158.92 Q 390.898 159.331 389.936 159.427 Z  M 181.128 144.087 L 172.831 139.828 L 173.191 137.433 L 186.566 144.5 L 186.2 146.934 L 171.341 149.736 L 171.698 147.36 L 180.92 145.735 L 180.92 145.735 Q 181.582 145.597 182.611 145.485 L 182.611 145.485 L 182.611 145.485 Q 183.64 145.374 184.135 145.369 L 184.135 145.369 L 184.135 145.369 Q 183.42 145.133 182.493 144.727 L 182.493 144.727 L 182.493 144.727 Q 181.567 144.321 181.128 144.087 L 181.128 144.087 L 181.128 144.087 Z  M 190.177 130.755 L 189.489 132.985 L 175.847 128.774 L 176.535 126.544 L 190.177 130.755 L 190.177 130.755 Z  M 198.249 112.357 L 197.172 114.591 L 192.981 114.154 L 190.612 119.072 L 193.577 122.051 L 192.509 124.268 L 181.913 113.233 L 183.015 110.946 L 198.249 112.357 L 198.249 112.357 Z  M 189.096 117.583 L 190.902 113.835 L 186.82 113.354 L 186.82 113.354 Q 186.404 113.316 185.535 113.185 L 185.535 113.185 L 185.535 113.185 Q 184.666 113.053 184.272 112.971 L 184.272 112.971 L 184.272 112.971 Q 185.24 113.73 186.304 114.807 L 186.304 114.807 L 189.096 117.583 L 189.096 117.583 Z  M 204.479 110.399 L 204.479 110.399 L 204.479 110.399 Q 203.944 111.192 203.381 111.59 L 203.381 111.59 L 201.754 110.493 L 201.754 110.493 Q 202.383 109.927 202.721 109.425 L 202.721 109.425 L 202.721 109.425 Q 203.791 107.838 201.784 106.484 L 201.784 106.484 L 190.311 98.747 L 191.622 96.803 L 203.029 104.497 L 203.029 104.497 Q 204.843 105.721 205.221 107.23 L 205.221 107.23 L 205.221 107.23 Q 205.599 108.739 204.479 110.399 Z  M 212.751 90.597 L 214.218 91.931 L 208.786 97.907 L 198.22 88.304 L 203.653 82.327 L 205.112 83.654 L 201.25 87.903 L 204.126 90.518 L 207.745 86.536 L 209.191 87.85 L 205.571 91.831 L 208.888 94.846 L 212.751 90.597 L 212.751 90.597 Z  M 214.195 75.528 L 217.164 79.13 L 218.415 78.099 L 218.415 78.099 Q 219.674 77.062 219.854 76.129 L 219.854 76.129 L 219.854 76.129 Q 220.034 75.195 219.276 74.276 L 219.276 74.276 L 219.276 74.276 Q 218.506 73.342 217.56 73.438 L 217.56 73.438 L 217.56 73.438 Q 216.614 73.534 215.386 74.547 L 215.386 74.547 L 214.195 75.528 L 214.195 75.528 Z  M 220.173 79.156 L 218.394 80.622 L 222.022 85.023 L 220.221 86.507 L 211.14 75.49 L 214.252 72.925 L 214.252 72.925 Q 216.384 71.167 218.068 71.121 L 218.068 71.121 L 218.068 71.121 Q 219.751 71.075 221.08 72.688 L 221.08 72.688 L 221.08 72.688 Q 222.776 74.745 221.356 77.383 L 221.356 77.383 L 228.487 79.693 L 226.438 81.383 L 220.173 79.156 L 220.173 79.156 Z  M 242.401 63.844 L 242.401 63.844 L 242.401 63.844 Q 244.064 66.908 243.454 69.439 L 243.454 69.439 L 243.454 69.439 Q 242.844 71.97 240.038 73.493 L 240.038 73.493 L 240.038 73.493 Q 237.197 75.035 234.758 74.175 L 234.758 74.175 L 234.758 74.175 Q 232.319 73.315 230.633 70.208 L 230.633 70.208 L 230.633 70.208 Q 228.947 67.101 229.575 64.604 L 229.575 64.604 L 229.575 64.604 Q 230.203 62.108 233.045 60.566 L 233.045 60.566 L 233.045 60.566 Q 235.843 59.047 238.288 59.909 L 238.288 59.909 L 238.288 59.909 Q 240.733 60.771 242.401 63.844 Z  M 232.822 69.042 L 232.822 69.042 L 232.822 69.042 Q 234.08 71.359 235.665 72.049 L 235.665 72.049 L 235.665 72.049 Q 237.251 72.739 239.087 71.742 L 239.087 71.742 L 239.087 71.742 Q 240.916 70.75 241.204 69.06 L 241.204 69.06 L 241.204 69.06 Q 241.493 67.37 240.221 65.027 L 240.221 65.027 L 240.221 65.027 Q 238.968 62.718 237.398 62.026 L 237.398 62.026 L 237.398 62.026 Q 235.828 61.333 233.999 62.325 L 233.999 62.325 L 233.999 62.325 Q 232.154 63.327 231.862 65.03 L 231.862 65.03 L 231.862 65.03 Q 231.569 66.733 232.822 69.042 Z  M 260.261 61.505 L 260.261 61.505 L 260.261 61.505 Q 260.823 63.325 259.827 64.767 L 259.827 64.767 L 259.827 64.767 Q 258.831 66.209 256.517 66.924 L 256.517 66.924 L 256.517 66.924 Q 254.203 67.639 252.507 67.375 L 252.507 67.375 L 251.856 65.267 L 251.856 65.267 Q 252.924 65.417 254.052 65.345 L 254.052 65.345 L 254.052 65.345 Q 255.179 65.272 256.084 64.993 L 256.084 64.993 L 256.084 64.993 Q 257.409 64.584 257.883 63.885 L 257.883 63.885 L 257.883 63.885 Q 258.358 63.187 258.095 62.338 L 258.095 62.338 L 258.095 62.338 Q 257.859 61.573 257.116 61.219 L 257.116 61.219 L 257.116 61.219 Q 256.373 60.866 254.338 60.698 L 254.338 60.698 L 254.338 60.698 Q 252.239 60.518 251.174 59.784 L 251.174 59.784 L 251.174 59.784 Q 250.109 59.05 249.688 57.688 L 249.688 57.688 L 249.688 57.688 Q 249.161 55.98 250.071 54.626 L 250.071 54.626 L 250.071 54.626 Q 250.982 53.272 253.025 52.64 L 253.025 52.64 L 253.025 52.64 Q 254.984 52.035 257.19 52.294 L 257.19 52.294 L 257.043 54.333 L 257.043 54.333 Q 254.987 54.13 253.56 54.571 L 253.56 54.571 L 253.56 54.571 Q 252.477 54.905 252.063 55.549 L 252.063 55.549 L 252.063 55.549 Q 251.649 56.193 251.888 56.968 L 251.888 56.968 L 251.888 56.968 Q 252.052 57.499 252.393 57.808 L 252.393 57.808 L 252.393 57.808 Q 252.734 58.117 253.351 58.294 L 253.351 58.294 L 253.351 58.294 Q 253.968 58.472 255.472 58.61 L 255.472 58.61 L 255.472 58.61 Q 257.167 58.771 258.034 59.096 L 258.034 59.096 L 258.034 59.096 Q 258.901 59.421 259.438 60.001 L 259.438 60.001 L 259.438 60.001 Q 259.975 60.582 260.261 61.505 Z " fill="rgb(0,0,0)"/></g></svg>