<?xml version="1.0" encoding="UTF-8" standalone="no"?><!-- Generator: Gravit.io --><svg xmlns="http://www.w3.org/2000/svg" xmlns:xlink="http://www.w3.org/1999/xlink" style="isolation:isolate" viewBox="0 0 560 315" width="560pt" height="315pt"><defs><clipPath id="_clipPath_aNYRjyGySKdnQs9GPiUmOHYaaee7BCJu"><rect width="560" height="315"/></clipPath></defs><g clip-path="url(#_clipPath_aNYRjyGySKdnQs9GPiUmOHYaaee7BCJu)"><mask id="_mask_8LUzMukA6WH2BtQzXC9W2ctLGKHPOkwn"><path d=" M 160.5 163 C 160.5 94.011 216.511 38 285.5 38 C 354.489 38 410.5 94.011 410.5 163 C 410.5 231.989 354.489 288 285.5 288 C 216.511 288 160.5 231.989 160.5 163 Z " fill="white" stroke="none"/></mask><path d=" M 160.5 163 C 160.5 94.011 216.511 38 285.5 38 C 354.489 38 410.5 94.011 410.5 163 C 410.5 231.989 354.489 288 285.5 288 C 216.511 288 160.5 231.989 160.5 163 Z " fill="rgb(235,235,235)"/><path d=" M 160.5 163 C 160.5 94.011 216.511 38 285.5 38 C 354.489 38 410.5 94.011 410.5 163 C 410.5 231.989 354.489 288 285.5 288 C 216.511 288 160.5 231.989 160.5 163 Z " fill="rgb(235,235,235)" mask="url(#_mask_8LUzMukA6WH2BtQzXC9W2ctLGKHPOkwn)" vector-effect="non-scaling-stroke" stroke-width="12" stroke="rgb(0,0,0)" stroke-linejoin="miter" stroke-linecap="square" stroke-miterlimit="3"/><circle vector-effect="non-scaling-stroke" cx="285.5" cy="163" r="100" fill="rgb(113,195,195)"/><g><path d=" M 277.757 136.591 C 275.81 134.424 274.104 132.052 272.667 129.518 C 269.789 124.467 267.947 118.894 267.247 113.123 L 267.247 111.272 C 267.322 110.097 267.787 108.98 268.569 108.099 C 268.978 107.701 269.476 107.406 270.023 107.24 C 270.388 107.128 270.765 107.061 271.147 107.042 L 271.874 107.042 C 272.866 107.042 273.989 106.909 274.915 107.108 C 275.906 107.306 289.524 107.504 298.052 115.702 C 303.803 112.396 326.081 113.454 330.775 117.685 C 330.775 116.363 343.599 108.165 359.399 109.223 C 360.619 109.258 361.807 109.624 362.836 110.281 C 363.286 110.599 363.668 111.004 363.96 111.471 L 364.489 112.727 C 364.783 114.418 364.715 116.153 364.291 117.817 C 363.893 119.577 363.294 121.285 362.506 122.907 C 361.274 125.689 359.815 128.364 358.143 130.906 L 354.904 136.789 L 355.565 136.922 L 355.565 141.417 L 353.119 142.078 C 354.049 144.909 354.364 147.907 354.044 150.87 C 353.565 154.628 351.843 158.119 349.152 160.786 L 347.83 162.108 C 345.3 164.297 342.604 166.286 339.765 168.058 C 337.484 169.406 335.069 170.514 332.56 171.363 L 332.295 171.495 L 332.097 171.561 L 331.965 171.826 C 331.271 173.198 330.304 174.413 329.122 175.396 C 328.386 176.044 327.589 176.619 326.742 177.114 C 323.901 178.677 320.728 179.538 317.487 179.626 C 315.838 179.763 314.179 179.763 312.529 179.626 C 309.765 179.389 307.036 178.835 304.398 177.974 C 303.369 177.571 302.374 177.084 301.424 176.519 C 300.281 175.766 299.294 174.801 298.515 173.677 C 298.421 173.548 298.333 173.416 298.25 173.28 L 297.92 173.214 C 292.66 172.401 287.81 169.894 284.104 166.075 C 281.587 163.383 279.771 160.114 278.815 156.555 C 278.156 154.266 277.714 151.92 277.493 149.548 C 277.179 147.115 277.112 144.656 277.295 142.21 L 277.295 141.681 L 276.435 141.417 L 276.369 136.922 L 277.691 136.591 L 277.757 136.591 Z " fill-rule="evenodd" fill="rgb(0,0,0)" fill-opacity="0.2"/><mask id="_mask_bLeU4E5YJqYRI1ZsJpAw18ASOUciKjwP" x="-200%" y="-200%" width="400%" height="400%"><rect x="-200%" y="-200%" width="400%" height="400%" style="fill:white;"/><path d=" M 280.27 134.145 C 278.311 131.964 276.603 129.569 275.179 127.006 C 272.302 121.955 270.459 116.382 269.759 110.611 C 269.731 110.149 269.731 109.685 269.759 109.223 L 269.759 108.76 C 269.826 107.73 270.194 106.742 270.816 105.918 C 271.255 105.355 271.854 104.94 272.535 104.728 C 272.879 104.621 273.234 104.554 273.593 104.53 L 274.386 104.53 C 275.312 104.53 276.501 104.397 277.427 104.596 C 278.419 104.794 291.97 104.992 300.564 113.189 C 306.315 109.884 328.527 110.942 333.287 115.173 C 333.287 113.851 346.045 105.719 361.911 106.711 C 363.138 106.766 364.326 107.154 365.348 107.835 C 365.758 108.151 366.115 108.53 366.406 108.959 C 366.935 109.956 367.207 111.069 367.199 112.198 C 367.199 113.322 367.001 114.313 366.803 115.305 C 366.361 117.082 365.741 118.809 364.952 120.461 C 363.729 123.213 362.292 125.866 360.655 128.394 L 357.349 134.343 L 358.077 134.476 L 358.011 138.905 L 355.631 139.566 C 356.527 142.405 356.82 145.399 356.49 148.358 C 356.049 152.114 354.348 155.609 351.664 158.274 C 350.768 159.167 349.818 160.006 348.822 160.786 C 346.751 162.569 344.54 164.183 342.211 165.612 C 339.951 166.956 337.559 168.063 335.072 168.917 L 334.741 169.049 L 334.543 169.049 L 334.477 169.314 C 333.791 170.709 332.823 171.947 331.634 172.95 C 330.875 173.579 330.056 174.133 329.188 174.602 C 326.386 176.142 323.261 177.002 320.065 177.114 C 318.394 177.252 316.713 177.252 315.041 177.114 C 312.276 176.88 309.548 176.325 306.91 175.462 C 305.877 175.067 304.881 174.581 303.936 174.007 C 303.274 173.611 302.613 173.082 302.085 172.553 C 301.557 172.028 301.111 171.426 300.762 170.768 L 300.432 170.768 C 295.134 169.928 290.257 167.373 286.55 163.496 C 284.066 160.817 282.274 157.572 281.327 154.043 C 280.668 151.754 280.226 149.408 280.005 147.036 C 279.661 144.428 279.595 141.791 279.807 139.169 L 278.947 138.905 L 278.815 134.476 L 280.27 134.145 Z " fill-rule="evenodd" fill="black" stroke="none"/></mask><path d=" M 280.27 134.145 C 278.311 131.964 276.603 129.569 275.179 127.006 C 272.302 121.955 270.459 116.382 269.759 110.611 C 269.731 110.149 269.731 109.685 269.759 109.223 L 269.759 108.76 C 269.826 107.73 270.194 106.742 270.816 105.918 C 271.255 105.355 271.854 104.94 272.535 104.728 C 272.879 104.621 273.234 104.554 273.593 104.53 L 274.386 104.53 C 275.312 104.53 276.501 104.397 277.427 104.596 C 278.419 104.794 291.97 104.992 300.564 113.189 C 306.315 109.884 328.527 110.942 333.287 115.173 C 333.287 113.851 346.045 105.719 361.911 106.711 C 363.138 106.766 364.326 107.154 365.348 107.835 C 365.758 108.151 366.115 108.53 366.406 108.959 C 366.935 109.956 367.207 111.069 367.199 112.198 C 367.199 113.322 367.001 114.313 366.803 115.305 C 366.361 117.082 365.741 118.809 364.952 120.461 C 363.729 123.213 362.292 125.866 360.655 128.394 L 357.349 134.343 L 358.077 134.476 L 358.011 138.905 L 355.631 139.566 C 356.527 142.405 356.82 145.399 356.49 148.358 C 356.049 152.114 354.348 155.609 351.664 158.274 C 350.768 159.167 349.818 160.006 348.822 160.786 C 346.751 162.569 344.54 164.183 342.211 165.612 C 339.951 166.956 337.559 168.063 335.072 168.917 L 334.741 169.049 L 334.543 169.049 L 334.477 169.314 C 333.791 170.709 332.823 171.947 331.634 172.95 C 330.875 173.579 330.056 174.133 329.188 174.602 C 326.386 176.142 323.261 177.002 320.065 177.114 C 318.394 177.252 316.713 177.252 315.041 177.114 C 312.276 176.88 309.548 176.325 306.91 175.462 C 305.877 175.067 304.881 174.581 303.936 174.007 C 303.274 173.611 302.613 173.082 302.085 172.553 C 301.557 172.028 301.111 171.426 300.762 170.768 L 300.432 170.768 C 295.134 169.928 290.257 167.373 286.55 163.496 C 284.066 160.817 282.274 157.572 281.327 154.043 C 280.668 151.754 280.226 149.408 280.005 147.036 C 279.661 144.428 279.595 141.791 279.807 139.169 L 278.947 138.905 L 278.815 134.476 L 280.27 134.145 Z " fill-rule="evenodd" fill="rgb(255,255,255)"/><path d=" M 280.27 134.145 C 278.311 131.964 276.603 129.569 275.179 127.006 C 272.302 121.955 270.459 116.382 269.759 110.611 C 269.731 110.149 269.731 109.685 269.759 109.223 L 269.759 108.76 C 269.826 107.73 270.194 106.742 270.816 105.918 C 271.255 105.355 271.854 104.94 272.535 104.728 C 272.879 104.621 273.234 104.554 273.593 104.53 L 274.386 104.53 C 275.312 104.53 276.501 104.397 277.427 104.596 C 278.419 104.794 291.97 104.992 300.564 113.189 C 306.315 109.884 328.527 110.942 333.287 115.173 C 333.287 113.851 346.045 105.719 361.911 106.711 C 363.138 106.766 364.326 107.154 365.348 107.835 C 365.758 108.151 366.115 108.53 366.406 108.959 C 366.935 109.956 367.207 111.069 367.199 112.198 C 367.199 113.322 367.001 114.313 366.803 115.305 C 366.361 117.082 365.741 118.809 364.952 120.461 C 363.729 123.213 362.292 125.866 360.655 128.394 L 357.349 134.343 L 358.077 134.476 L 358.011 138.905 L 355.631 139.566 C 356.527 142.405 356.82 145.399 356.49 148.358 C 356.049 152.114 354.348 155.609 351.664 158.274 C 350.768 159.167 349.818 160.006 348.822 160.786 C 346.751 162.569 344.54 164.183 342.211 165.612 C 339.951 166.956 337.559 168.063 335.072 168.917 L 334.741 169.049 L 334.543 169.049 L 334.477 169.314 C 333.791 170.709 332.823 171.947 331.634 172.95 C 330.875 173.579 330.056 174.133 329.188 174.602 C 326.386 176.142 323.261 177.002 320.065 177.114 C 318.394 177.252 316.713 177.252 315.041 177.114 C 312.276 176.88 309.548 176.325 306.91 175.462 C 305.877 175.067 304.881 174.581 303.936 174.007 C 303.274 173.611 302.613 173.082 302.085 172.553 C 301.557 172.028 301.111 171.426 300.762 170.768 L 300.432 170.768 C 295.134 169.928 290.257 167.373 286.55 163.496 C 284.066 160.817 282.274 157.572 281.327 154.043 C 280.668 151.754 280.226 149.408 280.005 147.036 C 279.661 144.428 279.595 141.791 279.807 139.169 L 278.947 138.905 L 278.815 134.476 L 280.27 134.145 Z " fill-rule="evenodd" fill="rgb(255,255,255)" mask="url(#_mask_bLeU4E5YJqYRI1ZsJpAw18ASOUciKjwP)" vector-effect="non-scaling-stroke" stroke-width="1.636" stroke="rgb(207,207,207)" stroke-linejoin="round" stroke-linecap="butt" stroke-miterlimit="1.41"/><path d=" M 298.978 117.42 C 298.978 117.42 314.248 110.81 333.882 119.47 C 333.882 119.47 342.277 112.661 355.961 110.611 C 369.645 108.562 356.16 129.055 356.16 129.055 L 350.871 138.508 C 350.871 138.508 356.027 148.953 347.367 156.886 C 343.145 161.085 338.009 164.252 332.361 166.141 C 332.361 166.141 329.783 173.809 316.562 173.346 C 304.002 172.883 302.613 167.463 302.613 167.463 C 302.613 167.463 288.202 166.537 284.633 151.399 C 282.12 140.491 284.633 135.005 284.633 135.005 C 284.633 135.005 277.163 127.733 274.783 115.834 C 272.667 105.125 279.278 108.76 284.236 109.554 C 288.863 110.215 298.118 115.503 299.044 117.354 L 298.978 117.42 Z " fill-rule="evenodd" fill="rgb(230,182,120)"/><path d=" M 283.112 134.674 C 281.342 132.687 279.791 130.515 278.485 128.196 C 275.853 123.548 274.168 118.425 273.527 113.123 L 273.527 111.405 C 273.587 110.475 273.908 109.582 274.452 108.826 C 274.856 108.301 275.409 107.91 276.039 107.703 C 276.511 107.564 277.001 107.497 277.493 107.504 L 277.757 107.504 C 278.617 107.504 279.476 107.637 280.336 107.835 L 282.782 108.43 L 283.443 108.562 L 284.104 108.694 L 284.633 108.76 L 284.897 108.76 C 286.315 109.051 287.692 109.518 288.996 110.149 C 292.312 111.556 295.46 113.33 298.383 115.437 L 299.308 116.363 L 299.771 116.164 C 310.917 112.916 322.85 113.688 333.485 118.346 L 333.75 118.412 L 334.08 118.214 L 334.543 117.883 C 341.028 113.631 348.358 110.834 356.027 109.686 L 356.821 109.62 C 357.261 109.589 357.703 109.589 358.143 109.62 C 359.244 109.635 360.32 109.955 361.25 110.545 C 361.64 110.836 361.976 111.194 362.241 111.603 C 362.467 111.952 362.645 112.33 362.77 112.727 C 362.93 113.353 362.996 113.999 362.968 114.644 C 362.71 117.252 362.017 119.8 360.919 122.18 C 359.788 124.703 358.462 127.135 356.953 129.452 L 353.978 134.872 L 354.639 135.005 L 354.507 139.103 L 352.391 139.764 C 353.218 142.344 353.489 145.071 353.185 147.763 C 352.683 151.8 350.618 155.479 347.434 158.01 L 346.111 159.199 C 344.218 160.801 342.207 162.26 340.096 163.562 C 338.005 164.806 335.79 165.826 333.485 166.603 L 333.221 166.736 L 333.022 166.736 C 332.387 168.088 331.462 169.284 330.312 170.239 C 329.646 170.866 328.915 171.42 328.13 171.892 C 325.531 173.318 322.632 174.111 319.669 174.206 C 314.846 174.439 310.033 173.58 305.588 171.694 C 304.711 171.22 303.909 170.618 303.208 169.909 C 302.836 169.548 302.504 169.15 302.217 168.719 L 301.952 168.322 L 301.688 168.322 C 296.859 167.533 292.41 165.216 288.996 161.712 C 286.697 159.241 285.04 156.245 284.17 152.985 C 283.53 150.894 283.087 148.747 282.848 146.573 C 282.575 144.336 282.53 142.077 282.715 139.83 L 282.715 139.368 L 281.922 139.103 L 281.856 135.005 L 283.178 134.674 L 283.112 134.674 Z  M 284.5 139.83 C 284.161 143.218 284.407 146.64 285.227 149.945 L 285.889 152.523 C 286.739 155.39 288.18 158.047 290.119 160.323 C 292.33 162.787 295.16 164.614 298.317 165.612 C 299.689 166.085 301.107 166.418 302.547 166.603 L 303.274 166.603 C 303.274 166.868 303.407 167.066 303.473 167.264 C 303.569 167.545 303.702 167.812 303.869 168.058 C 304.245 168.559 304.69 169.004 305.192 169.38 C 305.853 169.909 306.712 170.305 307.505 170.702 C 311.87 172.238 316.527 172.758 321.123 172.222 C 323.503 171.958 325.751 171.231 327.734 169.975 C 329.135 169.089 330.312 167.889 331.171 166.471 C 331.298 166.259 331.408 166.038 331.502 165.81 L 331.634 165.413 L 333.088 164.819 C 335.163 164.001 337.193 163.074 339.17 162.042 C 341.748 160.595 344.126 158.817 346.244 156.754 L 347.301 155.696 C 348.526 154.49 349.533 153.081 350.276 151.531 C 351.449 148.968 351.817 146.11 351.334 143.334 L 351.334 143.136 C 349.417 152.589 344.921 152.126 344.921 152.126 C 344.921 152.126 335.997 153.118 329.981 152.457 C 323.966 151.796 320.528 142.276 320.528 142.276 L 315.901 142.276 C 315.901 142.276 312.529 151.729 306.514 152.457 C 300.498 153.118 291.574 152.126 291.574 152.126 C 291.574 152.126 286.021 152.721 284.633 139.896 L 284.5 139.896 L 284.5 139.83 Z  M 321.123 170.636 C 321.123 170.9 320.594 171.429 320.198 171.495 C 319.14 171.627 315.702 171.627 314.645 171.495 C 314.248 171.495 313.719 170.9 313.719 170.636 C 313.719 170.305 314.248 169.776 314.645 169.71 C 315.702 169.578 319.14 169.578 320.198 169.71 C 320.594 169.776 321.123 170.371 321.123 170.636 Z  M 317.157 156.423 C 320.66 156.423 323.503 159.332 323.503 162.835 C 323.503 166.405 320.66 169.314 317.157 169.314 C 315.445 169.314 313.804 168.629 312.599 167.412 C 311.395 166.195 310.727 164.547 310.745 162.835 C 310.745 159.332 313.587 156.423 317.157 156.423 Z  M 290.252 135.269 C 290.252 135.269 300.961 133.021 308.894 135.93 C 314.909 138.244 312.001 142.739 310.612 145.185 C 309.224 147.631 305.919 149.878 304.2 150.077 C 302.481 150.275 293.623 149.812 293.623 149.812 C 293.623 149.812 288.533 148.49 287.541 141.219 C 286.946 136.856 290.252 135.269 290.252 135.269 Z  M 346.177 135.269 C 346.177 135.269 335.534 133.021 327.536 135.93 C 321.586 138.244 324.429 142.739 325.883 145.185 C 327.205 147.631 330.576 149.878 332.295 150.077 C 333.948 150.275 342.806 149.812 342.806 149.812 C 342.806 149.812 347.962 148.49 348.888 141.219 C 349.549 136.856 346.244 135.269 346.244 135.269 L 346.177 135.269 Z  M 333.485 137.913 C 335.468 138.707 336.394 140.822 335.667 142.673 C 335.006 144.458 332.758 145.317 330.841 144.524 C 329.913 144.21 329.151 143.534 328.728 142.651 C 328.305 141.767 328.256 140.75 328.593 139.83 C 329.386 137.979 331.502 137.186 333.485 137.913 Z  M 305.654 137.913 C 307.638 138.707 308.563 140.822 307.836 142.673 C 307.175 144.458 304.927 145.317 303.01 144.524 C 302.082 144.21 301.321 143.534 300.897 142.651 C 300.474 141.767 300.426 140.75 300.762 139.83 C 301.49 137.979 303.671 137.186 305.654 137.913 Z  M 352.193 134.41 L 355.432 128.592 L 355.763 128.063 L 356.093 127.468 C 357.591 124.961 358.916 122.355 360.06 119.668 C 360.517 118.308 360.871 116.916 361.118 115.503 L 361.184 114.974 L 361.184 114.181 C 361.162 113.541 360.956 112.921 360.589 112.396 C 360.3 112.027 359.909 111.751 359.465 111.603 C 359.082 111.46 358.682 111.371 358.275 111.338 C 357.548 111.338 356.821 111.338 356.093 111.471 C 348.712 112.618 341.659 115.322 335.402 119.403 L 334.411 120.131 L 334.014 120.527 L 333.022 120.065 L 332.361 119.8 C 329.658 118.702 326.873 117.818 324.032 117.156 C 316.394 115.42 308.445 115.602 300.895 117.685 L 299.44 118.214 L 298.581 118.544 L 298.184 117.817 C 294.014 114.606 289.316 112.145 284.302 110.545 L 283.773 110.413 L 283.244 110.347 L 280.6 109.686 C 280.402 109.686 280.203 109.686 279.939 109.554 C 279.027 109.36 278.095 109.272 277.163 109.289 C 276.808 109.309 276.466 109.423 276.171 109.62 L 276.039 109.752 C 275.707 110.076 275.477 110.489 275.378 110.942 L 275.378 111.537 C 275.314 112.085 275.292 112.638 275.312 113.189 L 275.378 114.049 C 275.477 114.895 275.631 115.735 275.84 116.561 C 277.324 123.154 280.516 129.241 285.095 134.211 L 287.74 133.616 C 287.74 133.616 291.574 132.559 296.796 132.228 C 303.55 131.47 310.365 132.982 316.165 136.525 C 316.959 136.789 317.62 136.922 318.215 136.922 C 318.937 136.906 319.651 136.772 320.33 136.525 C 320.991 136.194 321.388 135.798 321.388 135.798 C 332.163 129.055 348.69 133.616 348.69 133.616 L 352.193 134.41 Z " fill-rule="evenodd" fill="rgb(67,50,49)"/><path d=" M 346.706 130.377 L 341.55 126.146 C 341.352 123.766 342.409 121.387 345.252 119.073 C 345.252 119.073 353.581 115.371 357.085 115.768 C 360.589 116.164 349.152 125.221 346.706 130.311 L 346.706 130.377 Z  M 288.929 129.914 L 294.548 126.345 C 295.011 124.031 294.284 121.519 291.706 118.875 C 291.706 118.875 283.905 114.247 280.336 114.247 C 276.766 114.247 287.078 124.428 288.929 129.914 Z " fill-rule="evenodd" fill="rgb(243,221,192)"/><path d=" M 331.502 139.301 C 331.899 139.5 332.031 139.963 331.899 140.359 C 331.7 140.756 331.237 141.02 330.907 140.888 C 330.51 140.69 330.378 140.227 330.51 139.83 C 330.709 139.368 331.171 139.169 331.502 139.301 Z  M 303.671 139.301 C 304.068 139.5 304.2 139.963 304.068 140.359 C 303.869 140.756 303.407 141.02 303.076 140.888 C 302.68 140.69 302.481 140.227 302.68 139.83 C 302.812 139.368 303.341 139.169 303.671 139.301 Z " fill-rule="evenodd" fill="rgb(255,255,255)"/></g><path d=" M 209.879 163 C 205.038 163 201.114 166.924 201.114 171.765 L 201.114 219.971 C 201.114 224.811 205.038 228.735 209.879 228.735 L 210.155 228.735 C 211.18 233.731 215.545 237.5 220.835 237.5 C 226.124 237.5 230.489 233.731 231.519 228.735 L 258.356 228.735 C 259.386 233.731 263.751 237.5 269.041 237.5 C 274.33 237.5 278.695 233.731 279.725 228.735 L 279.997 228.735 C 280.597 228.735 281.21 228.718 281.776 228.599 C 285.852 227.737 288.766 224.137 288.761 219.971 L 288.761 203.808 C 288.761 202.936 288.555 202.064 288.078 201.346 L 273.971 180.117 C 278.056 178.762 280.557 174.645 279.877 170.395 C 279.197 166.144 275.536 163.013 271.232 163 L 209.879 163 Z  M 218.644 180.529 L 231.791 180.529 C 234.201 180.529 236.173 182.501 236.173 184.912 L 236.173 198.059 C 236.173 200.469 234.201 202.441 231.791 202.441 L 218.644 202.441 C 216.233 202.441 214.261 200.469 214.261 198.059 L 214.261 184.912 C 214.261 182.501 216.233 180.529 218.644 180.529 Z  M 258.085 184.912 L 269.177 184.912 L 277.941 198.059 L 258.085 198.059 L 258.085 184.912 Z  M 220.835 222.162 C 223.245 222.162 225.217 224.134 225.217 226.544 C 225.217 228.954 223.245 230.926 220.835 230.926 C 218.424 230.926 216.452 228.954 216.452 226.544 C 216.452 224.134 218.424 222.162 220.835 222.162 Z  M 269.041 222.162 C 271.451 222.162 273.423 224.134 273.423 226.544 C 273.423 228.954 271.451 230.926 269.041 230.926 C 266.63 230.926 264.658 228.954 264.658 226.544 C 264.658 224.134 266.63 222.162 269.041 222.162 Z " fill="rgb(0,0,0)"/><g clip-path="url(#_clipPath_Tu7gEyHJBdKqPAEffEXTWgNYq94AnRnA)"><text transform="matrix(0.099,-0.995,0.995,0.099,183.201,157.27)" style="font-family:'Open Sans';font-weight:700;font-size:20px;font-style:normal;font-variant-ligatures:none;letter-spacing:5;fill:#000000;stroke:none;">V</text><text transform="matrix(0.247,-0.969,0.969,0.247,185.885,139.494)" style="font-family:'Open Sans';font-weight:700;font-size:20px;font-style:normal;font-variant-ligatures:none;letter-spacing:5;fill:#000000;stroke:none;">I</text><text transform="matrix(0.398,-0.917,0.917,0.398,189.071,128.307)" style="font-family:'Open Sans';font-weight:700;font-size:20px;font-style:normal;font-variant-ligatures:none;letter-spacing:5;fill:#000000;stroke:none;">A</text><text transform="matrix(0.559,-0.829,0.829,0.559,197.195,111.356)" style="font-family:'Open Sans';font-weight:700;font-size:20px;font-style:normal;font-variant-ligatures:none;letter-spacing:5;fill:#000000;stroke:none;">J</text><text transform="matrix(0.636,-0.772,0.772,0.636,203.792,101.788)" style="font-family:'Open Sans';font-weight:700;font-size:20px;font-style:normal;font-variant-ligatures:none;letter-spacing:5;fill:#000000;stroke:none;">E</text><text transform="matrix(0.772,-0.636,0.636,0.772,214.534,89.645)" style="font-family:'Open Sans';font-weight:700;font-size:20px;font-style:normal;font-variant-ligatures:none;letter-spacing:5;fill:#000000;stroke:none;">R</text><text transform="matrix(0.879,-0.477,0.477,0.879,228.811,78.309)" style="font-family:'Open Sans';font-weight:700;font-size:20px;font-style:normal;font-variant-ligatures:none;letter-spacing:5;fill:#000000;stroke:none;">O</text><text transform="matrix(0.956,-0.295,0.295,0.956,247.486,68.867)" style="font-family:'Open Sans';font-weight:700;font-size:20px;font-style:normal;font-variant-ligatures:none;letter-spacing:5;fill:#000000;stroke:none;">S </text><text transform="matrix(0.999,-0.049,0.049,0.999,272.953,62.81)" style="font-family:'Open Sans';font-weight:700;font-size:20px;font-style:normal;font-variant-ligatures:none;letter-spacing:5;fill:#000000;stroke:none;">P</text><text transform="matrix(0.989,0.149,-0.149,0.989,290.534,62.307)" style="font-family:'Open Sans';font-weight:700;font-size:20px;font-style:normal;font-variant-ligatures:none;letter-spacing:5;fill:#000000;stroke:none;">A</text><text transform="matrix(0.956,0.295,-0.295,0.956,309.046,65.559)" style="font-family:'Open Sans';font-weight:700;font-size:20px;font-style:normal;font-variant-ligatures:none;letter-spacing:5;fill:#000000;stroke:none;">T</text><text transform="matrix(0.901,0.434,-0.434,0.901,324.658,71.107)" style="font-family:'Open Sans';font-weight:700;font-size:20px;font-style:normal;font-variant-ligatures:none;letter-spacing:5;fill:#000000;stroke:none;">I</text><text transform="matrix(0.829,0.559,-0.559,0.829,335.03,76.365)" style="font-family:'Open Sans';font-weight:700;font-size:20px;font-style:normal;font-variant-ligatures:none;letter-spacing:5;fill:#000000;stroke:none;">P</text><text transform="matrix(0.74,0.673,-0.673,0.74,349.192,86.723)" style="font-family:'Open Sans';font-weight:700;font-size:20px;font-style:normal;font-variant-ligatures:none;letter-spacing:5;fill:#000000;stroke:none;">E</text><text transform="matrix(0.598,0.801,-0.801,0.598,360.676,98.154)" style="font-family:'Open Sans';font-weight:700;font-size:20px;font-style:normal;font-variant-ligatures:none;letter-spacing:5;fill:#000000;stroke:none;">R</text><text transform="matrix(0.434,0.901,-0.901,0.434,371.16,113.051)" style="font-family:'Open Sans';font-weight:700;font-size:20px;font-style:normal;font-variant-ligatures:none;letter-spacing:5;fill:#000000;stroke:none;">R</text><text transform="matrix(0.247,0.969,-0.969,0.247,378.851,129.592)" style="font-family:'Open Sans';font-weight:700;font-size:20px;font-style:normal;font-variant-ligatures:none;letter-spacing:5;fill:#000000;stroke:none;">O</text><text transform="matrix(0.099,0.995,-0.995,0.099,383.326,150.01)" style="font-family:'Open Sans';font-weight:700;font-size:20px;font-style:normal;font-variant-ligatures:none;letter-spacing:5;fill:#000000;stroke:none;">S</text></g><defs><clipPath id="_clipPath_Tu7gEyHJBdKqPAEffEXTWgNYq94AnRnA"><rect x="0" y="0" width="226.44" height="111.875" transform="matrix(1,0,0,1,183.628,62.886)"/></clipPath></defs></g></svg>